General
Complete name : X/The.Truth Behind.The Crystal.Skull.720p.WMW.mkv
Format : Matroska
Format version : Version 2
File size : 1.12 GiB
Duration : 44mn 55s
Overall bit rate : 3 571 Kbps
Writing application : HandBrake 0.9.5
Writing library : libmkv 0.6.4.1

Video
ID : 1
Format : AVC
Format/Info : Advanced Video Codec
Format profile : High@L3.2
Format settings, CABAC : Yes
Format settings, ReFrames : 4 frames
Codec ID : V_MPEG4/ISO/AVC
Duration : 44mn 55s
Bit rate : 3 179 Kbps
Width : 1 280 pixels
Height : 720 pixels
Display aspect ratio : 16:9
Frame rate mode : Variable
Frame rate : 52.290 fps
Color space : YUV
Chroma subsampling : 4:2:0
Bit depth : 8 bits
Scan type : Progressive
Bits/(Pixel*Frame) : 0.066
Stream size : 1 001 MiB (87%)
Writing library : x264 core 112

Language : English
Default : Yes
Forced : No

Audio
ID : 2
Format : AC-3
Format/Info : Audio Coding 3
Mode extension : CM (complete main)
Codec ID : A_AC3
Duration : 44mn 55s
Bit rate mode : Constant
Bit rate : 384 Kbps
Channel(s) : 6 channels
Channel positions : Front: L C R, Side: L R, LFE
Sampling rate : 48.0 KHz
Bit depth : 16 bits
Compression mode : Lossy
Stream size : 123 MiB (11%)
Default : Yes
Forced : No